<svg width="1366" height="181" viewBox="0 0 1366 181" fill="none" xmlns="http://www.w3.org/2000/svg">
<rect width="1366" height="181" fill="white"/>
<path d="M141.433 145C136.607 145 132.458 143.264 128.987 139.793C125.515 136.322 123.78 132.173 123.78 127.347V71.213C123.78 66.387 125.515 62.2383 128.987 58.767C132.458 55.2957 136.607 53.56 141.433 53.56H197.567C202.393 53.56 206.541 55.2957 210.013 58.767C213.484 62.2383 215.22 66.387 215.22 71.213V127.347C215.22 132.173 213.484 136.322 210.013 139.793C206.541 143.264 202.393 145 197.567 145H141.433ZM144.989 128.109H193.884C196.17 128.109 197.482 127.982 197.821 127.728C198.159 127.389 198.329 126.035 198.329 123.664V74.896C198.329 72.5253 198.159 71.213 197.821 70.959C197.482 70.6203 196.17 70.451 193.884 70.451H144.989C142.618 70.451 141.263 70.6203 140.925 70.959C140.671 71.213 140.544 72.5253 140.544 74.896V123.664C140.544 126.035 140.671 127.389 140.925 127.728C141.263 127.982 142.618 128.109 144.989 128.109ZM255.241 145C250.415 145 246.266 143.307 242.795 139.92C239.408 136.449 237.715 132.3 237.715 127.474V71.34H254.352V123.918C254.352 126.289 254.479 127.643 254.733 127.982C255.071 128.236 256.426 128.363 258.797 128.363H291.436C293.806 128.363 295.119 128.236 295.373 127.982C295.711 127.643 295.881 126.289 295.881 123.918V71.34H312.518V127.474C312.518 132.3 310.782 136.449 307.311 139.92C303.924 143.307 299.818 145 294.992 145H255.241ZM334.782 145V88.866C334.782 84.04 336.476 79.9337 339.862 76.547C343.334 73.0757 347.482 71.34 352.308 71.34H393.202V87.977H355.864C353.494 87.977 352.139 88.1463 351.8 88.485C351.546 88.739 351.419 90.0513 351.419 92.422V145H334.782ZM491.008 145V70.451H453.67V53.56H545.11V70.451H507.899V145H491.008ZM580.389 145C575.563 145 571.415 143.307 567.943 139.92C564.557 136.449 562.863 132.3 562.863 127.474V88.866C562.863 84.04 564.557 79.9337 567.943 76.547C571.415 73.0757 575.563 71.34 580.389 71.34H620.14C624.966 71.34 629.073 73.0757 632.459 76.547C635.931 79.9337 637.666 84.04 637.666 88.866V116.552H579.5V123.918C579.5 126.289 579.627 127.643 579.881 127.982C580.22 128.236 581.575 128.363 583.945 128.363H637.666V145H580.389ZM579.5 101.566H621.029V92.422C621.029 90.0513 620.86 88.739 620.521 88.485C620.267 88.1463 618.955 87.977 616.584 87.977H583.945C581.575 87.977 580.22 88.1463 579.881 88.485C579.627 88.739 579.5 90.0513 579.5 92.422V101.566ZM677.339 145C672.513 145 668.364 143.307 664.893 139.92C661.506 136.449 659.813 132.3 659.813 127.474V99.788H717.979V92.422C717.979 90.0513 717.81 88.739 717.471 88.485C717.217 88.1463 715.905 87.977 713.534 87.977H659.813V71.34H717.09C721.916 71.34 726.022 73.0757 729.409 76.547C732.88 79.9337 734.616 84.04 734.616 88.866V145H677.339ZM680.895 128.363H717.979V114.774H676.45V123.918C676.45 126.289 676.577 127.643 676.831 127.982C677.17 128.236 678.524 128.363 680.895 128.363ZM753.789 145V71.34H845.102C849.928 71.34 854.034 73.0757 857.421 76.547C860.892 79.9337 862.628 84.04 862.628 88.866V145H846.118V92.422C846.118 90.0513 845.949 88.739 845.61 88.485C845.271 88.1463 843.959 87.977 841.673 87.977H821.099C818.728 87.977 817.374 88.1463 817.035 88.485C816.781 88.739 816.654 90.0513 816.654 92.422V145H799.89V92.422C799.89 90.0513 799.721 88.739 799.382 88.485C799.128 88.1463 797.816 87.977 795.445 87.977H774.871C772.5 87.977 771.146 88.1463 770.807 88.485C770.553 88.739 770.426 90.0513 770.426 92.422V145H753.789Z" fill="#262626" fill-opacity="0.25"/>
<path d="M134.962 147.315C132.022 147.315 129.322 146.625 126.862 145.245C124.402 143.865 122.452 141.96 121.012 139.53C119.572 137.07 118.852 134.295 118.852 131.205C118.852 128.145 119.572 125.4 121.012 122.97C122.452 120.51 124.402 118.59 126.862 117.21C129.322 115.83 132.022 115.14 134.962 115.14C137.932 115.14 140.632 115.83 143.062 117.21C145.522 118.59 147.457 120.51 148.867 122.97C150.307 125.4 151.027 128.145 151.027 131.205C151.027 134.295 150.307 137.07 148.867 139.53C147.457 141.96 145.522 143.865 143.062 145.245C140.602 146.625 137.902 147.315 134.962 147.315ZM134.962 141.69C136.852 141.69 138.517 141.27 139.957 140.43C141.397 139.56 142.522 138.33 143.332 136.74C144.142 135.15 144.547 133.305 144.547 131.205C144.547 129.105 144.142 127.275 143.332 125.715C142.522 124.125 141.397 122.91 139.957 122.07C138.517 121.23 136.852 120.81 134.962 120.81C133.072 120.81 131.392 121.23 129.922 122.07C128.482 122.91 127.357 124.125 126.547 125.715C125.737 127.275 125.332 129.105 125.332 131.205C125.332 133.305 125.737 135.15 126.547 136.74C127.357 138.33 128.482 139.56 129.922 140.43C131.392 141.27 133.072 141.69 134.962 141.69ZM182.399 122.07V147H176.054V143.85C175.244 144.93 174.179 145.785 172.859 146.415C171.569 147.015 170.159 147.315 168.629 147.315C166.679 147.315 164.954 146.91 163.454 146.1C161.954 145.26 160.769 144.045 159.899 142.455C159.059 140.835 158.639 138.915 158.639 136.695V122.07H164.939V135.795C164.939 137.775 165.434 139.305 166.424 140.385C167.414 141.435 168.764 141.96 170.474 141.96C172.214 141.96 173.579 141.435 174.569 140.385C175.559 139.305 176.054 137.775 176.054 135.795V122.07H182.399ZM198.065 125.94C198.875 124.62 199.925 123.585 201.215 122.835C202.535 122.085 204.035 121.71 205.715 121.71V128.325H204.05C202.07 128.325 200.57 128.79 199.55 129.72C198.56 130.65 198.065 132.27 198.065 134.58V147H191.765V122.07H198.065V125.94ZM248.356 115.59V120.675H239.986V147H233.686V120.675H225.316V115.59H248.356ZM279.278 133.995C279.278 134.895 279.218 135.705 279.098 136.425H260.873C261.023 138.225 261.653 139.635 262.763 140.655C263.873 141.675 265.238 142.185 266.858 142.185C269.198 142.185 270.863 141.18 271.853 139.17H278.648C277.928 141.57 276.548 143.55 274.508 145.11C272.468 146.64 269.963 147.405 266.993 147.405C264.593 147.405 262.433 146.88 260.513 145.83C258.623 144.75 257.138 143.235 256.058 141.285C255.008 139.335 254.483 137.085 254.483 134.535C254.483 131.955 255.008 129.69 256.058 127.74C257.108 125.79 258.578 124.29 260.468 123.24C262.358 122.19 264.533 121.665 266.993 121.665C269.363 121.665 271.478 122.175 273.338 123.195C275.228 124.215 276.683 125.67 277.703 127.56C278.753 129.42 279.278 131.565 279.278 133.995ZM272.753 132.195C272.723 130.575 272.138 129.285 270.998 128.325C269.858 127.335 268.463 126.84 266.813 126.84C265.253 126.84 263.933 127.32 262.853 128.28C261.803 129.21 261.158 130.515 260.918 132.195H272.753ZM285.406 134.445C285.406 131.925 285.901 129.69 286.891 127.74C287.911 125.79 289.276 124.29 290.986 123.24C292.726 122.19 294.661 121.665 296.791 121.665C298.651 121.665 300.271 122.04 301.651 122.79C303.061 123.54 304.186 124.485 305.026 125.625V122.07H311.371V147H305.026V143.355C304.216 144.525 303.091 145.5 301.651 146.28C300.241 147.03 298.606 147.405 296.746 147.405C294.646 147.405 292.726 146.865 290.986 145.785C289.276 144.705 287.911 143.19 286.891 141.24C285.901 139.26 285.406 136.995 285.406 134.445ZM305.026 134.535C305.026 133.005 304.726 131.7 304.126 130.62C303.526 129.51 302.716 128.67 301.696 128.1C300.676 127.5 299.581 127.2 298.411 127.2C297.241 127.2 296.161 127.485 295.171 128.055C294.181 128.625 293.371 129.465 292.741 130.575C292.141 131.655 291.841 132.945 291.841 134.445C291.841 135.945 292.141 137.265 292.741 138.405C293.371 139.515 294.181 140.37 295.171 140.97C296.191 141.57 297.271 141.87 298.411 141.87C299.581 141.87 300.676 141.585 301.696 141.015C302.716 140.415 303.526 139.575 304.126 138.495C304.726 137.385 305.026 136.065 305.026 134.535ZM351.634 121.71C354.694 121.71 357.154 122.655 359.014 124.545C360.904 126.405 361.849 129.015 361.849 132.375V147H355.549V133.23C355.549 131.28 355.054 129.795 354.064 128.775C353.074 127.725 351.724 127.2 350.014 127.2C348.304 127.2 346.939 127.725 345.919 128.775C344.929 129.795 344.434 131.28 344.434 133.23V147H338.134V133.23C338.134 131.28 337.639 129.795 336.649 128.775C335.659 127.725 334.309 127.2 332.599 127.2C330.859 127.2 329.479 127.725 328.459 128.775C327.469 129.795 326.974 131.28 326.974 133.23V147H320.674V122.07H326.974V125.085C327.784 124.035 328.819 123.21 330.079 122.61C331.369 122.01 332.779 121.71 334.309 121.71C336.259 121.71 337.999 122.13 339.529 122.97C341.059 123.78 342.244 124.95 343.084 126.48C343.894 125.04 345.064 123.885 346.594 123.015C348.154 122.145 349.834 121.71 351.634 121.71Z" fill="black"/>
</svg>
