<svg width="512" height="512" viewBox="0 0 512 512" fill="none" xmlns="http://www.w3.org/2000/svg">
<rect x="59" y="45" width="394" height="25" fill="#F13C31"/>
<path fill-rule="evenodd" clip-rule="evenodd" d="M437 78H75V119L88 136V472C88 494.091 105.909 512 128 512H383C405.091 512 423 494.091 423 472V136L437 119V78ZM195 165H162V422H195V165ZM240 165H273V422H240V165ZM360 165H327V422H360V165Z" fill="#F13C31"/>
<path fill-rule="evenodd" clip-rule="evenodd" d="M194.215 45H159.907C164.609 19.3988 187.04 0 214 0H298C324.96 0 347.391 19.3988 352.093 45H317.785C317.926 44.1879 318 43.3525 318 42.5C318 34.4918 311.508 28 303.5 28H208.5C200.492 28 194 34.4918 194 42.5C194 43.3525 194.074 44.1879 194.215 45Z" fill="#F13C31"/>
</svg>
